<svg id="walls" xmlns="http://www.w3.org/2000/svg" xmlns:xlink="http://www.w3.org/1999/xlink" viewBox="0 0 4120.17 2596.7"><defs><style>.cls-1{fill:#9d9d9d;}.cls-2{fill:#38a4dd;}.cls-3{fill:#4daf4e;}.cls-4{fill:#69b2e2;}.cls-5,.shine{fill:#feea39;}.cls-6{fill:#b3d3ef;}.cls-7{fill:#cce1f4;}.cls-8{fill:#fef089;}.cls-9{fill:#d3d1d1;}.cls-10{fill:#e7e5e5;}.cls-11{fill:#231f20;}.cls-12{fill:none;}.cls-12,.cls-14{stroke:#9d9d9d;}.cls-13{fill:#fff;}.shine{stroke:#dcdbda;}.cls-14{fill:#fefefd;}.cls-15{fill:#ef4438;}</style><symbol id="angle-down" data-name="angle-down" viewBox="0 0 127.56 74.21"><path class="cls-1" d="M59.54,72.45L1.76,13.76a6,6,0,0,1,0-8.47L5.29,1.76a6,6,0,0,1,8.47,0l50,51,50-50.91a6,6,0,0,1,8.47,0l3.54,3.54a6,6,0,0,1,0,8.47L68,72.5A6,6,0,0,1,59.54,72.45Z"/></symbol><symbol id="square-solid" data-name="square-solid" viewBox="0 0 127.56 127.56"><path class="cls-1" d="M113.89,0H13.67A13.67,13.67,0,0,0,0,13.67V113.89a13.67,13.67,0,0,0,13.67,13.67H113.89a13.67,13.67,0,0,0,13.67-13.67V13.67A13.67,13.67,0,0,0,113.89,0Z"/></symbol><symbol id="angle-up" data-name="angle-up" viewBox="0 0 127.56 74.21"><path class="cls-1" d="M68,1.76L125.8,60.45a6,6,0,0,1,0,8.47l-3.54,3.54a6,6,0,0,1-8.47,0l-50-51-50,50.91a6,6,0,0,1-8.47,0L1.76,68.87a6,6,0,0,1,0-8.47L59.54,1.71a6,6,0,0,1,8.47,0h0Z"/></symbol><symbol id="video-solid" data-name="video-solid" viewBox="0 0 102.05 68.03"><path class="cls-1" d="M93.54,0H91.4a8.5,8.5,0,0,0-6,2.49L68,19.84V8.5A8.5,8.5,0,0,0,59.53,0H8.5A8.5,8.5,0,0,0,0,8.5v51A8.5,8.5,0,0,0,8.5,68h51a8.5,8.5,0,0,0,8.5-8.5V48.19L85.38,65.54a8.5,8.5,0,0,0,6,2.49h2.15a8.5,8.5,0,0,0,8.5-8.5V8.5A8.5,8.5,0,0,0,93.54,0Z"/></symbol></defs><title>floorplan</title><polygon class="cls-2" points="3481.84 68.03 3481.84 0 317.17 0 317.17 68.03 1805.75 68.03 1805.75 987.48 1577.62 987.48 1577.62 1055.51 2232.87 1055.51 2232.87 987.48 1873.79 987.48 1873.79 68.03 3481.84 68.03"/><polyline class="cls-2" points="345.52 718.18 317.17 718.18 317.17 689.84 345.52 689.84"/><polyline class="cls-2" points="3481.84 1154.72 3453.49 1154.72 3453.49 1126.37 3481.84 1126.37"/><polygon class="cls-2" points="3390.84 1424.01 3390.84 1492.04 2944.17 1492.04 2876.14 1492.04 2232.87 1492.04 2232.87 1304.96 2164.84 1304.96 2164.84 1831.32 2232.87 1831.32 2232.87 1560.07 2876.14 1560.07 2876.14 2086.7 2808.11 2086.7 2774.09 2086.7 2774.09 2441.38 2232.87 2441.38 2232.87 2058.09 2164.84 2058.09 2164.84 2528.67 2140.06 2528.67 2140.06 2596.7 2164.84 2596.7 2232.87 2596.7 2232.87 2509.41 2944.17 2509.41 2944.17 2441.38 2944.17 1560.07 3481.84 1560.07 3481.84 1492.04 3481.84 1424.01 3390.84 1424.01"/><polygon class="cls-2" points="1611.64 2528.67 1611.64 1811.22 1796.77 1811.22 1796.77 1743.19 1611.64 1743.19 1577.62 1743.19 1577.62 2528.67 396.54 2528.67 396.54 2242.92 345.52 2242.92 345.52 1885.76 396.54 1885.76 396.54 1811.22 1328.17 1811.22 1328.17 1743.19 1328.17 1524.92 1260.14 1524.92 1260.14 1573.11 1190.24 1573.11 1190.24 1743.19 396.54 1743.19 396.54 1576.39 345.52 1576.39 345.52 1219.23 396.54 1219.23 396.54 1055.51 1260.14 1055.51 1260.14 1273.77 1328.17 1273.77 1328.17 1055.51 1328.17 987.48 317.17 987.48 317.17 1055.51 317.17 2528.67 317.17 2596.7 1879.27 2596.7 1879.27 2528.67 1611.64 2528.67"/><rect class="cls-1" x="3481.84" y="1424.01" width="638.33" height="68.03"/><rect class="cls-1" x="4091.83" y="68.03" width="28.35" height="1355.98"/><rect class="cls-1" x="3481.84" width="638.33" height="68.03"/><rect class="cls-1" x="3921.75" y="68.03" width="28.35" height="1355.98"/><rect class="cls-3" x="3950.1" y="68.03" width="141.73" height="1355.98"/><rect class="cls-1" width="317.17" height="68.03"/><rect class="cls-1" y="987.48" width="317.17" height="68.03"/><rect class="cls-1" y="68.03" width="28.35" height="921.57"/><rect class="cls-4" x="1328.17" y="987.48" width="249.45" height="68.03"/><rect class="cls-4" x="2164.84" y="1055.51" width="68.03" height="249.45"/><rect class="cls-4" x="1328.17" y="1743.19" width="249.45" height="68.03"/><rect class="cls-4" x="1260.14" y="1270.7" width="68.03" height="254.22"/><rect class="cls-4" x="1879.27" y="2528.67" width="260.79" height="68.03"/><rect class="cls-5" x="317.17" y="718.18" width="28.35" height="269.29"/><rect class="cls-5" x="3453.49" y="1154.72" width="28.35" height="269.29"/><rect class="cls-4" x="2164.84" y="1831.32" width="68.03" height="226.77"/><path class="cls-6" d="M1477.56,893.47a253.2,253.2,0,0,0-73.14,176.31h249.45Z" transform="translate(-76.25 -82.3)"/><path class="cls-6" d="M2309.12,2140.39a230.18,230.18,0,0,0,160.28-66.49l-160.28-160.28v226.77Z" transform="translate(-76.25 -82.3)"/><path class="cls-6" d="M1404.42,1893.52a253.2,253.2,0,0,0,73.14,176.31l176.31-176.31H1404.42Z" transform="translate(-76.25 -82.3)"/><rect class="cls-7" x="1238.88" y="1062.59" width="14.17" height="255.12"/><path class="cls-6" d="M2485.42,1211a253.2,253.2,0,0,0-176.31-73.14v249.45Z" transform="translate(-76.25 -82.3)"/><path class="cls-6" d="M2032,2426.65A264.71,264.71,0,0,0,1955.52,2611H2216.3Z" transform="translate(-76.25 -82.3)"/><path class="cls-8" d="M612.1,879.45a273.34,273.34,0,0,0-190.33-79v269.29Z" transform="translate(-76.25 -82.3)"/><path class="cls-8" d="M3529.74,1237a273.34,273.34,0,0,0-190.33,79l190.33,190.33V1237Z" transform="translate(-76.25 -82.3)"/><rect class="cls-9" x="2374.6" y="1384.61" width="801.92" height="107.43"/><rect class="cls-9" x="1022.29" y="2290.56" width="501.73" height="238.11"/><rect class="cls-9" x="2091.14" y="272.64" width="283.46" height="510.24"/><polygon class="cls-9" points="2556.41 68.03 2556.41 181.42 2980.76 181.42 2980.76 245.2 3268.76 245.2 3268.76 181.42 3358.33 181.42 3358.33 68.03 2556.41 68.03"/><polygon class="cls-9" points="736.7 2301.9 623.32 2188.51 623.32 1848.35 396.54 1848.35 396.54 2188.51 396.54 2528.67 736.7 2528.67 736.7 2528.67 963.47 2528.67 963.47 2301.9 736.7 2301.9"/><rect class="cls-9" x="3325.94" y="323.15" width="70.87" height="566.93"/><rect class="cls-9" x="402.21" y="124.72" width="70.87" height="566.93"/><rect class="cls-9" x="1611.64" y="2270.71" width="107.72" height="257.95"/><rect class="cls-9" x="1611.64" y="1998.95" width="107.72" height="257.95"/><rect class="cls-9" x="1611.64" y="1811.22" width="170.08" height="170.08"/><polygon class="cls-9" points="1429.89 68.03 1286.18 68.03 1284.76 68.03 724.35 68.03 579.22 68.03 579.22 195.02 724.35 195.02 724.35 680.32 1286.18 680.32 1286.18 195.02 1429.89 195.02 1429.89 68.03"/><rect class="cls-10" x="744.35" y="89.83" width="521.82" height="568.69"/><rect class="cls-9" x="1631.71" y="99.72" width="174.05" height="856.06"/><rect class="cls-9" x="724.35" y="860.24" width="145.13" height="126.99"/><rect class="cls-9" x="959.17" y="860.24" width="145.13" height="126.99"/><path class="cls-10" d="M2481.75,1405.68v36.85h771v-36.85h-771Zm731.34,14.17H2521.43v-8.5h691.65v8.5Z" transform="translate(-76.25 -82.3)"/><rect class="cls-9" x="2663.73" y="470.55" width="606.61" height="272.13"/><rect class="cls-9" x="2621.02" y="1560.07" width="255.12" height="340.16"/><rect class="cls-9" x="2232.87" y="1560.07" width="170.08" height="170.08"/><rect class="cls-9" x="2455.29" y="1560.07" width="113.39" height="99.5"/><rect class="cls-9" x="2232.87" y="2129" width="136.06" height="255.12"/><path class="cls-9" d="M2773.81,2201.16v0.44h-24.09a52.44,52.44,0,0,0-52.44,52.44h0a52.44,52.44,0,0,0,52.44,52.44h48.19a52.86,52.86,0,0,0,6.7-.44h45.74v-52h0v-52.88h-76.54Z" transform="translate(-76.25 -82.3)"/><path class="cls-9" d="M2797.9,2374.21h-48.19a52.44,52.44,0,0,0-52.44,52.44h0a52.44,52.44,0,0,0,52.44,52.44h100.63v-52.44h0v-52.44H2797.9Z" transform="translate(-76.25 -82.3)"/><rect class="cls-9" x="2861.97" y="1908.43" width="14.17" height="170.08"/><rect class="cls-9" x="345.52" y="1219.23" width="197.01" height="357.17"/><rect class="cls-9" x="396.54" y="1055.51" width="835.25" height="170.08"/><rect class="cls-9" x="396.54" y="1573.11" width="793.7" height="170.08"/><rect class="cls-11" x="1830.13" y="1055.51" width="82.2" height="5.67"/><rect class="cls-5" x="345.52" y="1219.23" width="51.02" height="357.17"/><rect class="cls-5" x="345.52" y="1885.76" width="51.02" height="357.17"/><rect class="cls-5" x="317.17" y="68.03" width="28.35" height="621.81"/><rect class="cls-5" x="3453.49" y="68.03" width="28.35" height="1058.34"/><g id="wz-jalousie-buttons"><path class="cls-1" d="M3673.6,152.06c-48.14,0-87.17,38.45-87.17,85.89h0v57.26h0V438.36h0v57.26h0c0,47.44,39,85.89,87.17,85.89s87.17-38.45,87.17-85.89h0V438.36h0V295.21h0V238h0C3760.77,190.52,3721.74,152.06,3673.6,152.06Z" transform="translate(-76.25 -82.3)"/><path class="cls-12" d="M3671.6,152.19a85,85,0,0,0-85,85h0v56.69h0V435.66h0v56.69h0a85,85,0,0,0,170.08,0h0V435.66h0V293.92h0V237.23h0A85,85,0,0,0,3671.6,152.19Z" transform="translate(-76.25 -82.3)"/><g id="script.cover_1_close"><path class="cls-13" d="M3756.64,435.66H3586.56v56.69h0a85,85,0,0,0,170.08,0h0V435.66h0Z" transform="translate(-76.25 -82.3)"/><g id="_Gruppe_" data-name="&lt;Gruppe&gt;"><path class="cls-1" d="M3668.21,524.62L3622,477.67a4.79,4.79,0,0,1,0-6.78l2.83-2.83a4.79,4.79,0,0,1,6.78,0l40,40.77,40-40.73a4.79,4.79,0,0,1,6.78,0l2.83,2.83a4.79,4.79,0,0,1,0,6.78L3675,524.66A4.82,4.82,0,0,1,3668.21,524.62Z" transform="translate(-76.25 -82.3)"/></g></g><g id="script.cover_1_stop"><rect class="cls-13" x="3510.31" y="211.62" width="170.08" height="141.73"/><g id="_Gruppe_2" data-name="&lt;Gruppe&gt;"><path class="cls-1" d="M3702.78,325.1h-62.36a8.51,8.51,0,0,0-8.5,8.5V396a8.51,8.51,0,0,0,8.5,8.5h62.36a8.51,8.51,0,0,0,8.5-8.5V333.61A8.51,8.51,0,0,0,3702.78,325.1Z" transform="translate(-76.25 -82.3)"/></g></g><g id="script.cover_1_open"><path class="cls-13" d="M3586.56,293.92h170.08V237.23h0a85,85,0,0,0-170.08,0h0v56.69h0Z" transform="translate(-76.25 -82.3)"/><g id="_Gruppe_3" data-name="&lt;Gruppe&gt;"><path class="cls-1" d="M3675,205l46.23,46.95a4.79,4.79,0,0,1,0,6.78l-2.83,2.83a4.79,4.79,0,0,1-6.78,0l-40-40.77-40,40.73a4.79,4.79,0,0,1-6.78,0l-2.83-2.83a4.79,4.79,0,0,1,0-6.78l46.23-46.95a4.82,4.82,0,0,1,6.78,0h0Z" transform="translate(-76.25 -82.3)"/></g></g></g><g id="az-jalousie-buttons"><path class="cls-1" d="M277.91,152.06c-48.14,0-87.17,38.45-87.17,85.89h0v57.26h0V438.36h0v57.26h0c0,47.44,39,85.89,87.17,85.89s87.17-38.45,87.17-85.89h0V438.36h0V295.21h0V238h0C365.07,190.52,326,152.06,277.91,152.06Z" transform="translate(-76.25 -82.3)"/><path id="runter" class="cls-13" d="M360.95,435.66H190.87v56.69h0a85,85,0,0,0,170.08,0h0V435.66h0Z" transform="translate(-76.25 -82.3)"/><rect id="stop" class="cls-13" x="114.62" y="211.62" width="170.08" height="141.73"/><path id="rauf" class="cls-13" d="M190.87,293.92H360.95V237.23h0a85,85,0,0,0-170.08,0h0v56.69h0Z" transform="translate(-76.25 -82.3)"/><path class="cls-12" d="M275.91,152.19a85,85,0,0,0-85,85h0v56.69h0V435.66h0v56.69h0a85,85,0,0,0,170.08,0h0V435.66h0V293.92h0V237.23h0A85,85,0,0,0,275.91,152.19Z" transform="translate(-76.25 -82.3)"/><use id="angle-down-3" data-name="angle-down" width="127.56" height="74.21" transform="translate(148.64 384.36) scale(0.8)" xlink:href="#angle-down"/><use id="square-solid-3" data-name="square-solid" width="127.56" height="127.56" transform="translate(159.98 242.8) scale(0.62)" xlink:href="#square-solid"/><use id="angle-up-3" data-name="angle-up" width="127.56" height="74.21" transform="translate(148.64 121.24) scale(0.8)" xlink:href="#angle-up"/></g><g id="light.bad"><path id="shine" class="shine" d="M2721.46,2040.52v0a141.73,141.73,0,0,0-283.46,0h0v85a141.73,141.73,0,0,0,283.46,0h0v-85Z" transform="translate(-76.25 -82.3)"/><g id="button"><path class="cls-1" d="M2668.9,2041.81h0c0-47.75-39-86.46-87.17-86.46s-87.17,38.71-87.17,86.46h0v86.45h0c0,47.75,39,86.46,87.17,86.46s87.16-38.71,87.17-86.46h0v-86.45Z" transform="translate(-76.25 -82.3)"/><path class="cls-14" d="M2664.77,2040.51h0a85,85,0,1,0-170.08,0h0v85h0a85,85,0,1,0,170.08,0h0v-85Z" transform="translate(-76.25 -82.3)"/><g id="icon"><path class="cls-5" d="M2593.28,2114.92h-27.11a2.39,2.39,0,0,0-2.39,2.39v5.58a4.78,4.78,0,0,0,3.19,4.51v1.87a4.78,4.78,0,0,0,4.78,4.78h15.94a4.78,4.78,0,0,0,4.78-4.78v-1.87a4.78,4.78,0,0,0,3.19-4.51v-5.58A2.39,2.39,0,0,0,2593.28,2114.92Z" transform="translate(-76.25 -82.3)"/><path id="bulb" class="cls-5" d="M2579.73,2032a35.08,35.08,0,0,0-35.08,35.08c0,20.28,10.3,18.25,18,38.4a4.77,4.77,0,0,0,4.46,3.05h25.16a4.77,4.77,0,0,0,4.46-3.05c7.74-20.16,18-18.13,18-38.4A35.08,35.08,0,0,0,2579.73,2032Zm0,19.13a16,16,0,0,0-15.94,15.94,3.19,3.19,0,1,1-6.38,0,22.35,22.35,0,0,1,22.32-22.32A3.19,3.19,0,0,1,2579.73,2051.14Z" transform="translate(-76.25 -82.3)"/></g></g></g><g id="light.diele"><circle id="shine-2" data-name="shine" class="shine" cx="1983.67" cy="2137.38" r="141.73"/><g id="button-2" data-name="button"><circle class="cls-1" cx="1985.67" cy="2139.37" r="87.17"/><circle class="cls-14" cx="1983.67" cy="2137.38" r="85.04"/><g id="icon-2" data-name="icon"><path class="cls-5" d="M2073.47,2251.57h-27.11A2.39,2.39,0,0,0,2044,2254v5.58a4.78,4.78,0,0,0,3.19,4.51v1.87a4.78,4.78,0,0,0,4.78,4.78h15.94a4.78,4.78,0,0,0,4.78-4.78V2264a4.78,4.78,0,0,0,3.19-4.51V2254A2.39,2.39,0,0,0,2073.47,2251.57Z" transform="translate(-76.25 -82.3)"/><path id="bulb-2" data-name="bulb" class="cls-5" d="M2059.91,2168.65a35.08,35.08,0,0,0-35.08,35.08c0,20.28,10.3,18.25,18,38.4a4.77,4.77,0,0,0,4.46,3.05h25.16a4.77,4.77,0,0,0,4.46-3.05c7.74-20.16,18-18.13,18-38.4A35.08,35.08,0,0,0,2059.91,2168.65Zm0,19.13a16,16,0,0,0-15.94,15.94,3.19,3.19,0,1,1-6.38,0,22.35,22.35,0,0,1,22.32-22.32A3.19,3.19,0,0,1,2059.91,2187.79Z" transform="translate(-76.25 -82.3)"/></g></g></g><g id="light.diele_mitte"><circle id="shine-3" data-name="shine" class="shine" cx="1746.18" cy="1399.35" r="141.73"/><g id="button-3" data-name="button"><circle class="cls-1" cx="1748.18" cy="1401.35" r="87.17"/><circle class="cls-14" cx="1746.18" cy="1399.35" r="85.04"/><g id="icon-3" data-name="icon"><path class="cls-5" d="M1836,1513.54h-27.11a2.39,2.39,0,0,0-2.39,2.39v5.58a4.78,4.78,0,0,0,3.19,4.51v1.87a4.78,4.78,0,0,0,4.78,4.78h15.94a4.78,4.78,0,0,0,4.78-4.78V1526a4.78,4.78,0,0,0,3.19-4.51v-5.58A2.39,2.39,0,0,0,1836,1513.54Z" transform="translate(-76.25 -82.3)"/><path id="bulb-3" data-name="bulb" class="cls-5" d="M1822.42,1430.63a35.08,35.08,0,0,0-35.08,35.08c0,20.28,10.3,18.25,18,38.4a4.77,4.77,0,0,0,4.46,3.05H1835a4.77,4.77,0,0,0,4.46-3.05c7.74-20.16,18-18.13,18-38.4A35.08,35.08,0,0,0,1822.42,1430.63Zm0,19.13a16,16,0,0,0-15.94,15.94,3.19,3.19,0,1,1-6.38,0,22.35,22.35,0,0,1,22.32-22.32A3.19,3.19,0,0,1,1822.42,1449.76Z" transform="translate(-76.25 -82.3)"/></g></g></g><g id="light.arbeitszimmer"><circle id="shine-4" data-name="shine" class="shine" cx="986.57" cy="2169.95" r="141.73"/><g id="button-4" data-name="button"><circle class="cls-1" cx="988.57" cy="2171.94" r="87.17"/><circle class="cls-14" cx="986.57" cy="2169.95" r="85.04"/><g id="icon-4" data-name="icon"><path class="cls-5" d="M1076.37,2284.14h-27.11a2.39,2.39,0,0,0-2.39,2.39v5.58a4.78,4.78,0,0,0,3.19,4.51v1.87a4.78,4.78,0,0,0,4.78,4.78h15.94a4.78,4.78,0,0,0,4.78-4.78v-1.87a4.78,4.78,0,0,0,3.19-4.51v-5.58A2.39,2.39,0,0,0,1076.37,2284.14Z" transform="translate(-76.25 -82.3)"/><path id="bulb-4" data-name="bulb" class="cls-5" d="M1062.81,2201.22a35.08,35.08,0,0,0-35.08,35.08c0,20.28,10.3,18.25,18,38.4a4.77,4.77,0,0,0,4.46,3.05h25.16a4.77,4.77,0,0,0,4.46-3.05c7.74-20.16,18-18.13,18-38.4A35.08,35.08,0,0,0,1062.81,2201.22Zm0,19.13a16,16,0,0,0-15.94,15.94,3.19,3.19,0,1,1-6.38,0,22.35,22.35,0,0,1,22.32-22.32A3.19,3.19,0,0,1,1062.81,2220.36Z" transform="translate(-76.25 -82.3)"/></g></g></g><g id="light.kueche"><circle id="shine-5" data-name="shine" class="shine" cx="828.34" cy="1397.81" r="141.73"/><g id="button-5" data-name="button"><circle class="cls-1" cx="830.34" cy="1399.81" r="87.17"/><circle class="cls-14" cx="828.34" cy="1397.81" r="85.04"/><g id="icon-5" data-name="icon"><path class="cls-5" d="M918.14,1512H891a2.39,2.39,0,0,0-2.39,2.39V1520a4.78,4.78,0,0,0,3.19,4.51v1.87a4.78,4.78,0,0,0,4.78,4.78h15.94a4.78,4.78,0,0,0,4.78-4.78v-1.87a4.78,4.78,0,0,0,3.19-4.51v-5.58A2.39,2.39,0,0,0,918.14,1512Z" transform="translate(-76.25 -82.3)"/><path id="bulb-5" data-name="bulb" class="cls-5" d="M904.59,1429.09a35.08,35.08,0,0,0-35.08,35.08c0,20.28,10.3,18.25,18,38.4a4.77,4.77,0,0,0,4.46,3.05h25.16a4.77,4.77,0,0,0,4.46-3.05c7.74-20.16,18-18.13,18-38.4A35.08,35.08,0,0,0,904.59,1429.09Zm0,19.13a16,16,0,0,0-15.94,15.94,3.19,3.19,0,1,1-6.38,0,22.35,22.35,0,0,1,22.32-22.32A3.19,3.19,0,0,1,904.59,1448.22Z" transform="translate(-76.25 -82.3)"/></g></g></g><g id="light.schlafzimmer"><circle id="shine-6" data-name="shine" class="shine" cx="1004.55" cy="527.14" r="141.73"/><g id="button-6" data-name="button"><circle class="cls-1" cx="1006.55" cy="529.13" r="87.17"/><circle class="cls-14" cx="1004.55" cy="527.14" r="85.04"/><g id="icon-6" data-name="icon"><path class="cls-5" d="M1094.35,641.33h-27.11a2.39,2.39,0,0,0-2.39,2.39v5.58a4.78,4.78,0,0,0,3.19,4.51v1.87a4.78,4.78,0,0,0,4.78,4.78h15.94a4.78,4.78,0,0,0,4.78-4.78v-1.87a4.78,4.78,0,0,0,3.19-4.51v-5.58A2.39,2.39,0,0,0,1094.35,641.33Z" transform="translate(-76.25 -82.3)"/><path id="bulb-6" data-name="bulb" class="cls-5" d="M1080.8,558.41a35.08,35.08,0,0,0-35.08,35.08c0,20.28,10.3,18.25,18,38.4a4.77,4.77,0,0,0,4.46,3.05h25.16a4.77,4.77,0,0,0,4.46-3.05c7.74-20.16,18-18.13,18-38.4A35.08,35.08,0,0,0,1080.8,558.41Zm0,19.13a16,16,0,0,0-15.94,15.94,3.19,3.19,0,1,1-6.38,0,22.35,22.35,0,0,1,22.32-22.32A3.19,3.19,0,0,1,1080.8,577.55Z" transform="translate(-76.25 -82.3)"/></g></g></g><g id="light.wohnzimmer_tisch"><circle id="shine-7" data-name="shine" class="shine" cx="2232.87" cy="527.76" r="141.73"/><g id="button-7" data-name="button"><circle class="cls-1" cx="2234.87" cy="529.75" r="87.17"/><circle class="cls-14" cx="2232.87" cy="527.76" r="85.04"/><g id="icon-7" data-name="icon"><path class="cls-5" d="M2322.67,641.95h-27.11a2.39,2.39,0,0,0-2.39,2.39v5.58a4.78,4.78,0,0,0,3.19,4.51v1.87a4.78,4.78,0,0,0,4.78,4.78h15.94a4.78,4.78,0,0,0,4.78-4.78v-1.87a4.78,4.78,0,0,0,3.19-4.51v-5.58A2.39,2.39,0,0,0,2322.67,641.95Z" transform="translate(-76.25 -82.3)"/><path id="bulb-7" data-name="bulb" class="cls-5" d="M2309.12,559A35.08,35.08,0,0,0,2274,594.11c0,20.28,10.3,18.25,18,38.4a4.77,4.77,0,0,0,4.46,3.05h25.16a4.77,4.77,0,0,0,4.46-3.05c7.74-20.16,18-18.13,18-38.4A35.08,35.08,0,0,0,2309.12,559Zm0,19.13a16,16,0,0,0-15.94,15.94,3.19,3.19,0,1,1-6.38,0,22.35,22.35,0,0,1,22.32-22.32A3.19,3.19,0,0,1,2309.12,578.17Z" transform="translate(-76.25 -82.3)"/></g></g></g><g id="light.wohnzimmer"><circle id="shine-8" data-name="shine" class="shine" cx="2842.58" cy="987.48" r="141.73"/><g id="button-8" data-name="button"><circle class="cls-1" cx="2844.58" cy="989.47" r="87.17"/><circle class="cls-14" cx="2842.58" cy="987.48" r="85.04"/><g id="icon-8" data-name="icon"><path class="cls-5" d="M2932.38,1101.67h-27.11a2.39,2.39,0,0,0-2.39,2.39v5.58a4.78,4.78,0,0,0,3.19,4.51V1116a4.78,4.78,0,0,0,4.78,4.78h15.94a4.78,4.78,0,0,0,4.78-4.78v-1.87a4.78,4.78,0,0,0,3.19-4.51v-5.58A2.39,2.39,0,0,0,2932.38,1101.67Z" transform="translate(-76.25 -82.3)"/><path id="bulb-8" data-name="bulb" class="cls-5" d="M2918.83,1018.75a35.08,35.08,0,0,0-35.08,35.08c0,20.28,10.3,18.25,18,38.4a4.77,4.77,0,0,0,4.46,3.05h25.16a4.77,4.77,0,0,0,4.46-3.05c7.74-20.16,18-18.13,18-38.4A35.08,35.08,0,0,0,2918.83,1018.75Zm0,19.13a16,16,0,0,0-15.94,15.94,3.19,3.19,0,1,1-6.38,0,22.35,22.35,0,0,1,22.32-22.32A3.19,3.19,0,0,1,2918.83,1037.89Z" transform="translate(-76.25 -82.3)"/></g></g></g><g id="beamer"><circle class="cls-1" cx="2791.01" cy="156.8" r="87.17"/><circle class="cls-14" cx="2789.01" cy="154.8" r="85.04"/><use id="video-solid-3" data-name="video-solid" width="102.05" height="68.03" transform="translate(2737.99 120.79)" xlink:href="#video-solid"/></g><g id="group.pc"><circle class="cls-1" cx="3124.94" cy="156.8" r="87.17"/><circle class="cls-14" cx="3122.94" cy="154.8" r="85.04"/><g id="_Gruppe_4" data-name="&lt;Gruppe&gt;"><path class="cls-1" d="M3226,195.46a50.21,50.21,0,1,1-53.66,0,2.43,2.43,0,0,1,3.42.85l2.39,4.23a2.42,2.42,0,0,1-.79,3.22,40.51,40.51,0,1,0,43.61,0,2.42,2.42,0,0,1-.79-3.22l2.39-4.23A2.43,2.43,0,0,1,3226,195.46ZM3204,242V188.51a2.44,2.44,0,0,0-2.43-2.43h-4.86a2.44,2.44,0,0,0-2.43,2.43V242a2.44,2.44,0,0,0,2.43,2.43h4.86A2.44,2.44,0,0,0,3204,242Z" transform="translate(-76.25 -82.3)"/></g></g><g id="circle_copy" data-name="circle copy"><path class="cls-11" d="M4141.85,2530.15c66.82-79.45,56.58-198-22.87-264.84s-198-56.58-264.84,22.87-56.58,198,22.87,264.84S4075,2609.6,4141.85,2530.15Zm-278.71-234.41A176.22,176.22,0,1,1,3884.57,2544,176.22,176.22,0,0,1,3863.14,2295.75Z" transform="translate(-76.25 -82.3)"/></g><g id="Shape_1_copy_3" data-name="Shape 1 copy 3"><path class="cls-11" d="M3958.51,2412.58l48.66,102.88,30.3-109.7,0.48,0-0.3-.62,0.18-.67-0.48,0-48.66-102.89-30.3,109.7-0.48,0,0.29,0.62-0.18.67Zm32.22-87.56,35,70.88-57.42,5Z" transform="translate(-76.25 -82.3)"/></g><polygon class="cls-15" points="3928.8 2409.91 3952.13 2326.73 3891.91 2331.93 3928.8 2409.91"/></svg>